{"title":"To Have and Have Not(1944)MP-4[DaScubaDude]","uid":12358885,"size":1225240550,"categoryP":"video","categoryS":"movies","magnet":"?xt=urn:btih:917c3135448d10b48cff5e19c2753ce2f35bbabf&amp;dn=To+Have+and+Have+Not%281944%29MP-4%5BDaScubaDude%5D&amp;tr=udp%3A%2F%2Ftracker.openbittorrent.com%3A80&amp;tr=udp%3A%2F%2Fopen.demonii.com%3A1337&amp;tr=udp%3A%2F%2Ftracker.coppersurfer.tk%3A6969&amp;tr=udp%3A%2F%2Fexodus.desync.com%3A6969","seeders":0,"leechers":1,"uploader":"dascuba","files":1,"time":1441506613,"description":"To Have and Have Not (1944)\nNot Rated  |  100 min  |  Adventure, Comedy, Romance  |  20 January 1945 (USA)\n8.0 Your rating:   -/10   Ratings: 8.0/10 from 21,761 users   \nReviews: 140 user | 64 critic\nDuring WWII, American expatriate Harry Morgan helps transport a Free French Resistance leader and his beautiful wife to Martinique while romancing a sexy lounge singer.\n\nDirector: Howard Hawks\nWriters: Ernest Hemingway (novel), Jules Furthman (screen play), 3 more credits Â»\nStars: Humphrey Bogart, Lauren Bacall, Walter Brennan\n\nGeneral\nComplete name         : C:To Have and Have NotTO_HAVE_AND_HAVE_NOT_NA_Title1.mp4\nFormat                                   : MPEG-4\nFormat profile                           : Base Media\nCodec ID                                 : isom\nFile size                                : 1.14 GiB\nDuration                                 : 1h 39mn\nOverall bit rate mode                    : Constant\nOverall bit rate                         : 1 634 Kbps\nMovie name                               : TO_HAVE_AND_HAVE_NOT_NA\nGenre                                    : Drama\nWriting application                      : Lavf54.6.100\n\nVideo\nID                                       : 1\nFormat                                   : MPEG-4 Visual\nFormat settings, BVOP                    : No\nFormat settings, QPel                    : No\nFormat settings, GMC                     : No warppoints\nFormat settings, Matrix                  : Default (H.263)\nCodec ID                                 : 20\nDuration                                 : 1h 39mn\nBit rate mode                            : Constant\nBit rate                                 : 1 500 Kbps\nWidth                                    : 720 pixels\nHeight                                   : 540 pixels\nDisplay aspect ratio                     : 4:3\nFrame rate mode                          : Constant\nFrame rate                               : 29.970 fps\nColor space                              : YUV\nChroma subsampling                       : 4:2:0\nBit depth                                : 8 bits\nScan type                                : Progressive\nCompression mode                         : Lossy\nBits/(Pixel*Frame)                       : 0.129\nStream size                              : 1.05 GiB (92%)\nWriting library                          : Lavc54.23.100\n\nAudio\nID                                       : 2\nFormat                                   : MPEG Audio\nFormat version                           : Version 1\nFormat profile                           : Layer 3\nCodec ID                                 : 6B\nDuration                                 : 1h 39mn\nBit rate mode                            : Constant\nBit rate                                 : 128 Kbps\nChannel(s)                               : 2 channels\nChannel(s)_Original                      : 1 channel\nSampling rate                            : 44.1 KHz\nCompression mode                         : Lossy\nStream size                              : 91.5 MiB (8%)\nWriting library                          : LAME3.99.5","torrent":{"xt":"urn:btih:917c3135448d10b48cff5e19c2753ce2f35bbabf","amp;dn":"To+Have+and+Have+Not%281944%29MP-4%5BDaScubaDude%5D","amp;tr":["udp%3A%2F%2Ftracker.openbittorrent.com%3A80","udp%3A%2F%2Fopen.demonii.com%3A1337","udp%3A%2F%2Ftracker.coppersurfer.tk%3A6969","udp%3A%2F%2Fexodus.desync.com%3A6969"],"infoHash":"917c3135448d10b48cff5e19c2753ce2f35bbabf","infoHashBuffer":{"type":"Buffer","data":[145,124,49,53,68,141,16,180,140,255,94,25,194,117,60,226,243,91,186,191]},"announce":[],"urlList":[]}}